<svg xmlns="http://www.w3.org/2000/svg" width="24" height="24" viewBox="0 0 24 24">
  <circle cx="12" cy="12" r="11" fill="#333" />
  <path fill="#FFF" d="M12 2C6.477 2 2 6.477 2 12c0 4.42 2.865 8.17 6.837 9.49.5.09.685-.216.685-.48 0-.237-.008-.868-.013-1.705-2.79.605-3.369-1.344-3.369-1.344-.455-1.177-1.112-1.492-1.112-1.492-.908-.622.07-.609.07-.609 1.002.07 1.53 1.028 1.53 1.028.892 1.527 2.34 1.086 2.905.83.09-.647.348-1.086.635-1.337-2.22-.25-4.555-1.11-4.555-4.938 0-1.09.39-1.986 1.032-2.686-.104-.25-.448-1.27.098-2.647 0 0 .84-.268 2.75 1.025.798-.223 1.648-.335 2.498-.34.85.005 1.7.117 2.498.34 1.91-1.293 2.75-1.025 2.75-1.025.547 1.377.204 2.397.1 2.647.64.7 1.03 1.597 1.03 2.687 0 3.836-2.337 4.686-4.567 4.93.36.307.68.916.68 1.847 0 1.334-.013 2.41-.013 2.737 0 .267.18.577.69.48C19.135 20.17 22 16.42 22 12c0-5.523-4.477-10-10-10z"/>
  <path fill="#333" d="M0 0h24v24H0z" fill-opacity="0"/>
</svg>
